<?xml version="1.0" encoding="UTF-8"?>
<svg id="Layer_1" data-name="Layer 1" xmlns="http://www.w3.org/2000/svg" viewBox="0 0 740.4 174">
  <defs>
    <style>
      .cls-1 {
        font-family: TimesNewRomanPS-BoldMT, 'Times New Roman';
        font-size: 60.41px;
        font-weight: 700;
      }

      .cls-1, .cls-2 {
        fill: #d57f00;
      }

      .cls-2 {
        stroke-width: 0px;
      }
    </style>
  </defs>
  <polygon class="cls-2" points="183.74 77.02 190.96 77.02 197.84 72.99 203.88 66.45 209.92 57.39 212.94 49.33 212.94 38.09 212.94 28.69 216.96 28.69 227.03 33.22 259.25 47.32 262.27 44.3 262.27 39.43 262.27 33.39 262.27 25.34 262.27 20.64 270.32 30.71 275.36 38.76 279.39 40.27 279.39 43.46 281.57 48.83 286.27 48.83 291.47 44.8 298.51 44.8 309.76 48.83 315.8 48.83 315.8 40.1 309.59 38.26 305.06 34.73 299.02 32.72 294.99 20.64 294.99 20.64 275.53 13.09 263.44 13.09 249.77 13.09 243.98 13.09 235.09 8.05 227.87 0 217.13 0 212.43 0 205.05 0 194.31 6.04 188.77 10.57 183.74 15.27 177.7 17.12 169.65 17.12 162.6 10.57 143.97 6.54 130.63 3.86 116.28 6.54 104.2 12.08 91.12 16.11 80.04 22.15 67.96 28.19 52.02 38.51 44.8 47.32 36.75 62.92 30.71 77.02 21.65 83.56 17.79 93.87 17.79 103.2 10.57 113.26 7.05 118.8 0 124.67 0 131.14 0 136.09 0 140.11 0 143.72 5.03 138.94 17.12 131.14 23.66 124.84 27.69 119.31 39.77 115.28 47.32 113.26 48.83 119.81 44.8 123.33 34.73 126.86 29.2 133.65 23.16 137.43 23.16 143.72 27.18 143.72 31.21 150.01 34.57 150.01 43.29 143.72 51.85 140.95 55.88 140.95 67.46 143.72 68.97 153.03 65.95 163.1 65.95 171.16 71.99 168.13 81.55 165.62 91.12 165.62 99.17 163.1 105.21 161.59 98.16 155.55 87.59 153.54 81.55 143.72 92.29 143.72 107.73 143.72 121.32 137.43 136.83 127.22 140.45 124.84 150.01 121.82 144.48 121.82 162.09 116.79 173.67 117.8 196.83 128.87 206.39 133.65 212.43 139.44 210.92 149.51 216.96 149.51 221.16 143.72 231.23 143.72 239.28 143.72 244.15 137.93 247.34 133.65 258.24 125.85 258.24 120.82 250.69 121.82 236.09 126.86 228.54 127.36 222.5 129.37 212.43 124.84 200.86 119.31 194.31 113.26 185.75 105.21 184.24 97.16 182.9 85.58 183.74 77.02"/>
  <text class="cls-1" transform="translate(329.22 81.72)"><tspan x="0" y="0">The </tspan><tspan x="0" y="72.49">Galloping goose</tspan></text>
</svg>