<?xml version="1.0" encoding="UTF-8"?><svg id="a" xmlns="http://www.w3.org/2000/svg" viewBox="0 0 1108 780"><defs><style>.b{fill:#ffb88b;}.b,.c,.d,.e,.f{stroke:#000;stroke-miterlimit:10;}.g{stroke-width:0px;}.c{fill:#b91400;}.d{fill:#ffd82e;}.e{fill:#fffbd0;}.f{fill:#450500;}</style></defs><polygon class="b" points="786 506 1098.76 395.5 1105.02 395.5 1107.5 399.98 1107.5 407.28 1098 431 1047 583 999 722 1000 728 1002 743 1000 752 994 762 986 772 975 777 966.24 779.5 951.11 779.5 937 773 921 765 898 753 875 740 843 715 819 695 797 670 765 630 745 596 729 564 726 557 723.5 549.72 723.5 540.85 723.5 531.46 728 522 736 513 744 503 764 501 770 501 782 505 786 506"/><polygon class="e" points="800 556 797 547 792 538 787 528 779 521.46 773 519 763 517 756 521 748 526 743 533 740 542 741.8 556 748 566 753 580 758.5 589.5 768 606 779 621.63 806 657 844 696 871 718 904 741 938 758 960 767 971.37 767 983 757 990 743 990 731.2 978 719 957 705 941 694 922 683 907.72 672.5 888 655 800 556"/><polygon class="c" points="804 510 1093.28 407 993 700 948.64 676.33 907 649 875 619 848 589 829 559 811 525 804 510"/><path class="f" d="M836,498l3,8,4,8,8,8,12.67,5h16.7l9.63-3,5-5,5.2-6.5,5.8-7.5v-11.59s-5-9.41-3.5-10.41,0-6.8,0-6.8l-66.5,21.8Z"/><polygon class="d" points="897 553 884.67 553 880 557 880 562.15 883 566 897 569.46 909.72 569.46 915 566 915 561.23 915 556.93 897 553"/><polygon class="d" points="977.78 471.58 965.46 471.58 960.78 475.58 960.78 480.73 963.78 484.58 977.78 488.03 990.5 488.03 995.78 484.58 995.78 479.8 995.78 475.51 977.78 471.58"/><polygon class="d" points="1051.78 443.58 1039.46 443.58 1034.78 447.58 1034.78 452.73 1037.78 456.58 1051.78 460.03 1064.5 460.03 1069.78 456.58 1069.78 451.8 1069.78 447.51 1051.78 443.58"/><polygon class="d" points="991.78 533.58 979.46 533.58 974.78 537.58 974.78 542.73 977.78 546.58 991.78 550.03 1004.5 550.03 1009.78 546.58 1009.78 541.8 1009.78 537.51 991.78 533.58"/><polygon class="f" points="919.5 533 914.28 551.58 916.89 564.15 925 578 934 584 953 588 967.5 581.37 978.98 571.98 983.67 552.49 980 539 971 528 953 518 937.24 522 919.5 533"/><polygon class="f" points="987.8 458.81 982.59 477.39 985.19 489.96 993.3 503.81 1002.3 509.81 1021.3 513.81 1035.8 507.18 1047.28 497.79 1051.98 478.3 1048.3 464.81 1039.3 453.81 1021.3 443.81 1005.54 447.81 987.8 458.81"/><polygon class="f" points="942.33 618.68 937.11 637.26 939.72 649.83 947.83 663.68 956.83 669.68 975.83 673.68 990.33 667.05 1001.8 657.66 1006.5 638.17 1002.83 624.68 993.83 613.68 975.83 603.68 960.06 607.68 942.33 618.68"/><polygon class="d" points="931.78 625.58 919.46 625.58 914.78 629.58 914.78 634.73 917.78 638.58 931.78 642.03 944.5 642.03 949.78 638.58 949.78 633.8 949.78 629.51 931.78 625.58"/><path class="g" d="M791.4,563.71c1.77.67,3.91,1.77,6.21,3.66,2.83,2.33,3.81,5.37,3.15,8.85-.54,3.13-2.5,6.99-5.79,10.99-3.35,4.06-6.57,6.77-9.61,8.17-4.2,2.01-8.04,1.64-10.84-.66-.86-.7-1.59-1.42-1.97-2.3l-14.81,17.97-2.86-2.36,36.53-44.33ZM776.44,587.7c.35.85,1.03,1.63,1.99,2.42,3.46,2.85,8.36,1.19,13.46-5,4.88-5.92,5.17-10.49,2.01-13.1-1.25-1.03-2.37-1.62-3.08-1.76l-14.37,17.44Z"/><path class="g" d="M824.67,598.23c-.33,2.57-1.55,4.48-3.03,4.27-1.31-.19-1.94-2.37-1.58-4.93.38-2.65,1.64-4.56,3-4.36,1.39.2,1.99,2.38,1.61,5.02ZM812.93,650.56l5.93-41.32,3.71.53-5.93,41.32-3.71-.53Z"/><path class="g" d="M838.36,661.27l25.9-4.56c2.39-.38,4.53-.66,6.93-1l.15-.09-5.72-9.6,5.26-3.14,8.06,13.52-4.1,2.39-25.53,4.49c-2.44.46-4.65.79-6.98,1.08l-.15.09,6.18,10.37-5.19,3.09-8.58-14.4,3.78-2.25Z"/><path class="g" d="M913.05,690.62l-21.33,15.38c-1.98,1.38-3.79,2.57-5.8,3.92l-.1.14,9.33,6.15-3.37,5.11-13.14-8.66,2.65-3.94,21.03-15.16c1.99-1.47,3.84-2.73,5.82-4.02l.1-.14-10.08-6.64,3.32-5.04,13.99,9.22-2.42,3.67Z"/><path class="g" d="M939.05,739.29l-1.03-5.17-.13.02c-.68,3.41-2.46,6.62-5.38,7.03-4.14.59-7.09-5-7.93-10.98-1.42-9.99,2.2-16.08,10.11-17.11l-.12-.85c-.48-3.42-1.82-9.5-6-8.9-1.9.27-3.71,1.75-4.88,3.83l-1.55-4.83c1.37-2.46,3.62-4.26,6.19-4.62,6.25-.89,8.99,7.52,10.17,15.8l2.19,15.46c.51,3.59,1.09,7.08,1.74,9.86l-3.38.48ZM935.51,718.28c-4.08.4-8.47,2.51-7.34,10.54.69,4.87,2.62,6.94,4.52,6.67,2.66-.38,3.86-4.03,3.96-7.62.02-.79-.02-1.65-.13-2.42l-1.02-7.17Z"/></svg>