<?xml version="1.0" encoding="UTF-8"?><svg id="Layer_1" xmlns="http://www.w3.org/2000/svg" viewBox="0 0 1166.3 476.4"><defs><style>.cls-1{fill:#fff;stroke-width:0px;}</style></defs><path class="cls-1" d="M295.3,157.9c3.1-10.7,4.7-22,4.7-33.7C300,55.6,243.4,0,173.5,0S47,55.6,47,124.3s1.6,22.7,4.6,33.3C21.2,170.7,0,200.6,0,235.3s38.7,85,86.5,85,12.8-.7,18.9-2l-40.7-40c-3.1-3.1-3.1-8,0-11.1,3.1-3.1,8.2-3.1,11.3,0l46.4,45.5c16-7.2,29.4-19,38.4-33.7v-131.4c0-7.3,6-13.3,13.5-13.3s13.5,5.9,13.5,13.3v135.1c3.4,4.9,7.3,9.5,11.6,13.6l84.5-83c3.1-3.1,8.2-3.1,11.3,0,3.1,3.1,3.1,8,0,11.1l-83.2,81.8c13.7,8.9,30.1,14.1,47.7,14.1,47.8,0,86.5-38,86.5-85s-20.8-64-50.7-77.4ZM149.8,291.3c-.8,0-1.5-.7-1.5-1.5s.7-1.5,1.5-1.5,1.5.7,1.5,1.5-.7,1.5-1.5,1.5Z"/><path class="cls-1" d="M187.7,307.7v-25c-6.9-10.1-11.7-21.6-13.6-34.1-.2,0-.4,0-.6,0-.5,0-1,0-1.6,0-1.7,11-5.7,21.3-11.3,30.4v71.4l-38.4-37.7c-5.4,2.4-11,4.3-16.9,5.6l55.3,54.4v80.4c0,7.3,6,13.3,13.5,13.3s13.5-5.9,13.5-13.3v-123.1l24.1-23.7c-4.5-2.9-8.7-6.3-12.5-9.9l-11.6,11.4Z"/><polygon class="cls-1" points="307.6 67.1 398.7 67.3 398.1 337.6 460.1 337.8 460.8 67.4 551.7 67.6 551.8 12.6 307.7 12 307.6 67.1"/><path class="cls-1" d="M642.2,160.3c5.7-4.8,12.7-7.2,21-7.2,8.5,0,17.7,3.4,27.6,10.3l18.4-54.3c-12.4-7.9-25.3-11.8-38.7-11.9-9.5,0-18,2.5-25.5,7.5-7.5,5-15.9,15.4-25.3,31.2v-33.5c0,0-54.6-.1-54.6-.1l-.5,235.7h58.9c0,.1.2-72.7.2-72.7,0-40.1,1.8-66.4,5.1-79,3.3-12.6,7.8-21.3,13.6-26.1Z"/><path class="cls-1" d="M921.7,274.2l-58.6-10.6c-3.2,11.8-8,20.4-14.3,25.7-6.3,5.3-14.1,8-23.3,7.9-13.6,0-24.9-5.2-33.9-15.5-9.1-10.3-13.8-24.7-14.1-43.2l147.5.3c.9-47.8-8.1-83.3-27.2-106.5-19.1-23.2-45.2-34.8-78.3-34.9-29.5,0-53.9,10.9-73.2,33-19.3,22.1-29,52.7-29.1,91.7,0,32.7,7.2,59.8,21.8,81.3,18.5,26.8,47.1,40.3,85.8,40.4,24.4,0,44.8-5.9,61.1-17.7,16.3-11.9,28.2-29.2,35.8-52ZM791,160.1c8.4-9.9,19-14.8,31.9-14.8,12,0,22.2,4.8,30.6,14.2,8.4,9.4,12.7,23.2,13.1,41.2l-88-.2c-.1-17,4.1-30.5,12.5-40.4Z"/><path class="cls-1" d="M1063.4,344.5c24.4,0,44.8-5.9,61.1-17.7,16.3-11.9,28.2-29.2,35.8-52l-58.6-10.6c-3.2,11.8-8,20.4-14.3,25.7-6.3,5.3-14.1,8-23.3,7.9-13.6,0-24.9-5.2-33.9-15.5-9.1-10.3-13.8-24.7-14.1-43.2l147.5.3c.9-47.8-8.1-83.3-27.2-106.5-19.1-23.2-45.2-34.8-78.3-34.9-29.5,0-53.9,10.9-73.2,33-19.3,22.1-29,52.7-29.1,91.7,0,32.7,7.2,59.8,21.8,81.3,18.5,26.8,47.1,40.3,85.8,40.4ZM1029.7,160.6c8.4-9.9,19-14.8,31.9-14.8,12,0,22.2,4.8,30.6,14.2,8.4,9.4,12.7,23.2,13.1,41.2l-88-.2c-.1-17,4.1-30.5,12.5-40.4Z"/><path class="cls-1" d="M446.7,352.4c-3.4-1-10.7-1.5-21.8-1.5h-29.4v96.9h18.3v-36.6h12c8.3,0,14.6-.5,19-1.4,3.2-.7,6.4-2.3,9.5-4.6,3.1-2.3,5.7-5.5,7.7-9.6,2-4.1,3-9.1,3-15s-1.8-14-5.3-18.9c-3.5-4.9-7.9-8-13.1-9.5ZM444,388.5c-1.4,2.2-3.3,3.7-5.7,4.8-2.4,1-7.3,1.5-14.5,1.5h-10v-27.5h8.9c6.6,0,11,.2,13.2.7,3,.6,5.4,2,7.4,4.3,1.9,2.3,2.9,5.2,2.9,8.7s-.7,5.4-2.1,7.5Z"/><path class="cls-1" d="M535.5,384.5c-1.6-2.5-4.1-4.5-7.3-6.1-3.2-1.6-6.8-2.4-10.8-2.4-7.8,0-14.5,3.5-20.1,10.5v-35.6h-17.4v96.9h17.4v-35.2c0-5.9.5-10.4,1.6-13.4,1.1-3,2.7-5.3,5-6.8,2.3-1.5,4.9-2.2,7.7-2.2s4.6.6,6.3,1.8c1.7,1.2,2.8,2.7,3.5,4.7.7,2,1,6.7,1,14v37.1h17.4v-41.2c0-6.3-.3-11-.9-14-.6-3-1.7-5.7-3.3-8.2Z"/><path class="cls-1" d="M587.3,376c-6.4,0-12.3,1.5-17.5,4.6-5.2,3-9.3,7.5-12.1,13.2-2.8,5.8-4.3,11.7-4.3,17.9s1.4,14.9,4.3,20.5c2.8,5.6,7,9.9,12.5,12.8,5.5,2.9,11.2,4.4,17.2,4.4,9.7,0,17.8-3.5,24.2-10.5,6.4-7,9.6-15.8,9.6-26.4s-3.2-19.3-9.5-26.2c-6.4-6.9-14.5-10.3-24.5-10.3ZM598.7,428.7c-3.1,3.7-6.9,5.6-11.4,5.6s-8.4-1.9-11.5-5.6c-3.1-3.7-4.6-9-4.6-16s1.5-12.3,4.6-16c3.1-3.7,6.9-5.6,11.5-5.6s8.3,1.9,11.4,5.6c3.1,3.7,4.6,9,4.6,15.9s-1.5,12.4-4.6,16.1Z"/><path class="cls-1" d="M658,434c-1.2,0-2.1-.3-2.9-.9-.8-.6-1.3-1.4-1.5-2.3-.2-.9-.3-4.3-.3-10v-28.3h11.9v-14.8h-11.9v-24.8l-17.5,10.8v14h-8v14.8h8v30.6c0,6.6.2,10.9.6,13.1.5,3,1.3,5.5,2.4,7.2,1.2,1.8,3,3.2,5.5,4.4,2.5,1.1,5.3,1.7,8.5,1.7,5.1,0,9.7-.9,13.7-2.8l-1.5-14.4c-3.1,1.2-5.4,1.8-7,1.8Z"/><path class="cls-1" d="M707,376c-6.4,0-12.3,1.5-17.5,4.6-5.2,3-9.3,7.5-12.1,13.2-2.8,5.8-4.3,11.7-4.3,17.9s1.4,14.9,4.3,20.5c2.8,5.6,7,9.9,12.5,12.8s11.2,4.4,17.2,4.4c9.7,0,17.8-3.5,24.2-10.5,6.4-7,9.6-15.8,9.6-26.4s-3.2-19.3-9.5-26.2c-6.4-6.9-14.5-10.3-24.5-10.3ZM718.5,428.7c-3.1,3.7-6.9,5.6-11.4,5.6s-8.4-1.9-11.5-5.6c-3.1-3.7-4.6-9-4.6-16s1.5-12.3,4.6-16c3.1-3.7,6.9-5.6,11.5-5.6s8.4,1.9,11.4,5.6c3.1,3.7,4.6,9,4.6,15.9s-1.5,12.4-4.6,16.1Z"/><path class="cls-1" d="M798.6,387.5c-5.3-7.6-12-11.4-20.1-11.4s-14.5,3.1-19.8,9.3c-5.3,6.2-8,15.2-8,27s2,17.2,6.1,23.5c5.2,8,12.2,12,21,12s14.5-3.8,19.7-11.4v10.2c0,4.1-.3,7-.8,8.5-.8,2.2-1.9,3.7-3.5,4.7-2.3,1.5-5.7,2.2-10.2,2.2s-6.2-.7-7.8-2c-1.2-.9-2-2.6-2.3-5.1l-19.9-2.6c0,.9,0,1.6,0,2.2,0,6.3,2.3,11.4,7,15.5,4.7,4.1,12.6,6.1,23.7,6.1s10.8-.7,14.6-2c3.9-1.3,6.9-3.2,9.3-5.5,2.3-2.3,4.1-5.6,5.4-9.7,1.3-4.1,1.9-10.3,1.9-18.6v-63h-16.3v9.9ZM793.4,427.5c-2.9,3.5-6.5,5.3-10.8,5.3s-7.3-1.7-10-5.2c-2.7-3.5-4.1-8.9-4.1-16.4s1.4-12.4,4.1-15.8c2.7-3.5,6.1-5.2,10.3-5.2s7.8,1.8,10.7,5.3c2.8,3.5,4.2,8.9,4.2,16.2s-1.5,12.2-4.4,15.8Z"/><path class="cls-1" d="M855,378.3c-2.2,1.5-4.7,4.6-7.5,9.3v-10h-16.2v70.2h17.4v-21.7c0-11.9.5-19.8,1.5-23.5,1-3.7,2.3-6.3,4-7.8,1.7-1.4,3.8-2.1,6.2-2.1s5.2,1,8.2,3l5.4-16.2c-3.7-2.3-7.5-3.5-11.5-3.5s-5.3.8-7.5,2.2Z"/><path class="cls-1" d="M934.6,424.8l.2-21.7c0-8.1-.8-13.6-2.3-16.6-1.5-3-4.2-5.5-8-7.5-3.8-2-9.6-2.9-17.3-2.9s-15,1.6-19.3,4.9c-4.3,3.3-7.4,8.3-9.2,15.1l15.8,3c1.1-3.3,2.5-5.5,4.2-6.8,1.7-1.3,4.1-2,7.2-2,4.6,0,7.7.8,9.4,2.3,1.7,1.5,2.5,4.1,2.5,7.6v1.9c-3.1,1.4-8.8,2.9-16.9,4.6-6,1.2-10.6,2.7-13.8,4.3-3.2,1.7-5.7,4-7.5,7.1-1.8,3.1-2.7,6.6-2.7,10.6,0,6,2,11,5.9,14.9,3.9,3.9,9.2,5.9,16,5.9s7.5-.8,10.8-2.3c3.4-1.5,6.6-3.9,9.5-6.9.1.4.3,1.1.6,2.2.7,2.4,1.2,4.3,1.7,5.5h17.2c-1.5-3.3-2.6-6.5-3.1-9.4-.6-2.9-.8-7.5-.8-13.7ZM917.7,417.8c0,4.5-.2,7.5-.7,9.1-.7,2.4-2,4.5-4.1,6.1-2.8,2.2-5.8,3.3-9,3.3s-5.1-.9-6.9-2.8c-1.8-1.9-2.7-4.1-2.7-6.7s1.1-4.8,3.4-6.5c1.5-1.1,4.6-2.1,9.5-3.2,4.8-1.1,8.4-2,10.6-2.8v3.7Z"/><path class="cls-1" d="M988.2,376c-4.4,0-8.4,1.1-12,3.3-3.6,2.2-6.4,5.1-8.5,8.6v-10.3h-16.2v96.9h17.4v-35.4c3.3,3.7,6.4,6.4,9.3,7.9,3,1.5,6.2,2.3,9.9,2.3,7.6,0,14.1-3.2,19.5-9.8,5.4-6.5,8.1-15.6,8.1-27.3s-2.7-20.3-8-26.7c-5.3-6.4-11.8-9.6-19.4-9.6ZM993.9,429.5c-2.7,3.5-6,5.2-10.1,5.2s-7.8-1.9-10.7-5.7c-2.9-3.8-4.4-9.6-4.4-17.5s1.4-12.1,4.2-15.6c2.8-3.5,6.3-5.3,10.6-5.3s7.5,1.8,10.3,5.4c2.8,3.6,4.1,9,4.1,16.4s-1.3,13.6-4,17Z"/><path class="cls-1" d="M1085,384.5c-1.6-2.5-4.1-4.5-7.3-6.1-3.2-1.6-6.8-2.4-10.8-2.4-7.8,0-14.5,3.5-20.1,10.5v-35.6h-17.4v96.9h17.4v-35.2c0-5.9.5-10.4,1.6-13.4,1.1-3,2.7-5.3,5-6.8,2.3-1.5,4.9-2.2,7.7-2.2s4.6.6,6.3,1.8c1.7,1.2,2.8,2.7,3.5,4.7.7,2,1,6.7,1,14v37.1h17.4v-41.2c0-6.3-.3-11-.9-14-.6-3-1.7-5.7-3.3-8.2Z"/><path class="cls-1" d="M1148.3,377.6l-15.4,49.9-15.7-49.9h-18.5l25,70.4c-1,3.9-2.5,7.2-4.5,9.7-1.9,2.5-4.9,3.8-9,3.8s-4.6-.3-7.4-.9l1.5,14.5c3.2.7,6.5,1.1,9.8,1.1s6.3-.4,8.9-1.1c2.6-.8,4.8-1.8,6.6-3.1,1.8-1.3,3.4-3.1,4.8-5.3,1.4-2.2,2.8-5.3,4.4-9.4l4.1-12.2,23.2-67.6h-18Z"/></svg>